<svg version="1.1" xmlns="http://www.w3.org/2000/svg" xmlns:xlink="http://www.w3.org/1999/xlink" width="512" height="512" viewBox="0 0 512 512"><defs/><g/><g transform="scale(1,1) scale(1,1)"><path fill="none" stroke="rgb(255,41,137)" paint-order="fill stroke markers" d=" M 70.656 226.64533333333335 C 70.656 174.61569162127395 112.8343582879406 132.43733333333336 164.864 132.43733333333336 L 347.13599999999997 132.43733333333336 C 399.16564171205937 132.43733333333336 441.344 174.61569162127395 441.344 226.64533333333335" stroke-opacity="1" stroke-miterlimit="10" stroke-width="47.104"/><path fill="none" stroke="rgb(255,41,137)" paint-order="fill stroke markers" d=" M 70.656 285.35466666666673 C 70.656 337.38430837872613 112.8343582879406 379.5626666666667 164.864 379.5626666666667 L 347.13599999999997 379.5626666666667 C 399.16564171205937 379.5626666666667 441.344 337.38430837872613 441.344 285.35466666666673" stroke-opacity="1" stroke-miterlimit="10" stroke-width="47.104"/><path fill="none" stroke="rgb(255,41,137)" paint-order="fill stroke markers" d=" M 117.76 256 C 138.29480737748872 223.70895644444445 166.34519262251132 223.70895644444445 186.88 256 L 186.88 256 C 207.4148073774887 288.2910435555556 235.4651926225113 288.2910435555556 256 256 L 256 256 C 276.53480737748873 223.70895644444445 304.5851926225113 223.70895644444445 325.12 256 L 325.12 256 C 345.65480737748874 288.2910435555556 373.7051926225113 288.2910435555556 394.24 256" stroke-opacity="1" stroke-miterlimit="10" stroke-width="28.2624"/><path fill="none" stroke="rgb(255,41,137)" paint-order="fill stroke markers" d=" M 117.76 256 C 176.4308782213963 163.73987555555556 128.2091217786037 163.73987555555556 186.88 256 L 186.88 256 C 245.55087822139632 348.26012444444444 197.3291217786037 348.26012444444444 256 256 L 256 256 C 314.6708782213963 163.73987555555556 266.4491217786037 163.73987555555556 325.12 256 L 325.12 256 C 383.7908782213963 348.26012444444444 335.5691217786037 348.26012444444444 394.24 256" stroke-opacity="1" stroke-miterlimit="10" stroke-width="28.2624"/><path fill="none" stroke="rgb(255,41,137)" paint-order="fill stroke markers" d=" M 23.552000000000007 256 C 23.552000000000007 229.9851791454208 44.64117914542081 208.89600000000002 70.656 208.89600000000002 C 96.6708208545792 208.89600000000002 117.76 229.9851791454208 117.76 256 C 117.76 282.01482085457917 96.6708208545792 303.10400000000004 70.656 303.10400000000004 C 44.64117914542081 303.10400000000004 23.552000000000007 282.01482085457917 23.552000000000007 256 Z" stroke-opacity="1" stroke-miterlimit="10" stroke-width="47.104"/><path fill="none" stroke="rgb(255,41,137)" paint-order="fill stroke markers" d=" M 394.24 256 C 394.24 229.9851791454208 415.32917914542077 208.89600000000002 441.344 208.89600000000002 C 467.3588208545792 208.89600000000002 488.448 229.9851791454208 488.448 256 C 488.448 282.01482085457917 467.3588208545792 303.10400000000004 441.344 303.10400000000004 C 415.32917914542077 303.10400000000004 394.24 282.01482085457917 394.24 256 Z" stroke-opacity="1" stroke-miterlimit="10" stroke-width="47.104"/></g></svg>