<svg version="1.1" xmlns="http://www.w3.org/2000/svg" xmlns:xlink="http://www.w3.org/1999/xlink" width="512" height="389.12" viewBox="0 0 512 389.12"><defs/><g/><g transform="scale(1,1)"><path fill="none" stroke="rgb(255,41,137)" paint-order="fill stroke markers" d=" M 92.16 153.6 C 92.16 85.73524994079209 147.17524994079207 30.72 215.04 30.72 L 296.96000000000004 30.72 C 364.82475005920793 30.72 419.84000000000003 85.73524994079209 419.84000000000003 153.6" stroke-opacity="1" stroke-miterlimit="10" stroke-width="61.44"/><path fill="none" stroke="rgb(255,41,137)" paint-order="fill stroke markers" d=" M 92.16 235.51999999999998 C 92.16 303.3847500592079 147.17524994079207 358.4 215.04 358.4 L 296.96000000000004 358.4 C 364.82475005920793 358.4 419.84000000000003 303.3847500592079 419.84000000000003 235.51999999999998" stroke-opacity="1" stroke-miterlimit="10" stroke-width="61.44"/><path fill="none" stroke="rgb(255,41,137)" paint-order="fill stroke markers" d=" M 153.6 194.56 C 184.02193685553883 151.74314666666666 225.57806314446117 151.74314666666666 256 194.56 L 256 194.56 C 286.42193685553883 237.37685333333334 327.9780631444612 237.37685333333334 358.40000000000003 194.56" stroke-opacity="1" stroke-miterlimit="10" stroke-width="36.864"/><path fill="none" stroke="rgb(255,41,137)" paint-order="fill stroke markers" d=" M 153.6 194.56 C 240.51981958725378 72.22613333333332 169.08018041274622 72.22613333333332 256 194.56 L 256 194.56 C 342.9198195872538 316.89386666666667 271.4801804127462 316.89386666666667 358.40000000000003 194.56" stroke-opacity="1" stroke-miterlimit="10" stroke-width="36.864"/><path fill="none" stroke="rgb(255,41,137)" paint-order="fill stroke markers" d=" M 30.72 194.56 C 30.72 160.627624972288 58.227624972288 133.12 92.16 133.12 C 126.092375027712 133.12 153.6 160.627624972288 153.6 194.56 C 153.6 228.492375027712 126.092375027712 256 92.16 256 C 58.227624972288 256 30.72 228.492375027712 30.72 194.56 Z" stroke-opacity="1" stroke-miterlimit="10" stroke-width="61.44"/><path fill="none" stroke="rgb(255,41,137)" paint-order="fill stroke markers" d=" M 358.40000000000003 194.56 C 358.40000000000003 160.627624972288 385.90762497228803 133.12 419.84000000000003 133.12 C 453.77237502771203 133.12 481.28000000000003 160.627624972288 481.28000000000003 194.56 C 481.28000000000003 228.492375027712 453.77237502771203 256 419.84000000000003 256 C 385.90762497228803 256 358.40000000000003 228.492375027712 358.40000000000003 194.56 Z" stroke-opacity="1" stroke-miterlimit="10" stroke-width="61.44"/></g></svg>