<svg version="1.1" xmlns="http://www.w3.org/2000/svg" xmlns:xlink="http://www.w3.org/1999/xlink" width="512" height="220.36480000000003" viewBox="0 0 512 220.36480000000003"><defs/><g/><g transform="scale(1,1)"><path fill="none" stroke="rgb(255,41,137)" paint-order="fill stroke markers" d=" M 153.6 110.18240000000002 C 184.02193685553883 67.36554666666669 225.57806314446117 67.36554666666669 256 110.18240000000002 L 256 110.18240000000002 C 286.42193685553883 152.99925333333334 327.9780631444612 152.99925333333334 358.40000000000003 110.18240000000002" stroke-opacity="1" stroke-miterlimit="10" stroke-width="36.864"/><path fill="none" stroke="rgb(255,41,137)" paint-order="fill stroke markers" d=" M 153.6 110.18240000000002 C 240.51981958725378 -12.151466666666664 169.08018041274622 -12.151466666666664 256 110.18240000000002 L 256 110.18240000000002 C 342.9198195872538 232.5162666666667 271.4801804127462 232.5162666666667 358.40000000000003 110.18240000000002" stroke-opacity="1" stroke-miterlimit="10" stroke-width="36.864"/><path fill="none" stroke="rgb(255,41,137)" paint-order="fill stroke markers" d=" M 30.72 110.18240000000002 C 30.72 76.25002497228802 58.227624972288 48.74240000000002 92.16 48.74240000000002 C 126.092375027712 48.74240000000002 153.6 76.25002497228802 153.6 110.18240000000002 C 153.6 144.11477502771203 126.092375027712 171.62240000000003 92.16 171.62240000000003 C 58.227624972288 171.62240000000003 30.72 144.11477502771203 30.72 110.18240000000002 Z" stroke-opacity="1" stroke-miterlimit="10" stroke-width="61.44"/><path fill="none" stroke="rgb(255,41,137)" paint-order="fill stroke markers" d=" M 358.40000000000003 110.18240000000002 C 358.40000000000003 76.25002497228802 385.90762497228803 48.74240000000002 419.84000000000003 48.74240000000002 C 453.77237502771203 48.74240000000002 481.28000000000003 76.25002497228802 481.28000000000003 110.18240000000002 C 481.28000000000003 144.11477502771203 453.77237502771203 171.62240000000003 419.84000000000003 171.62240000000003 C 385.90762497228803 171.62240000000003 358.40000000000003 144.11477502771203 358.40000000000003 110.18240000000002 Z" stroke-opacity="1" stroke-miterlimit="10" stroke-width="61.44"/></g></svg>