<svg version="1.1" xmlns="http://www.w3.org/2000/svg" xmlns:xlink="http://www.w3.org/1999/xlink" width="512" height="294.22933333333333" viewBox="0 0 512 294.22933333333333"><defs/><g/><g transform="scale(1,1)"><path fill="none" stroke="rgb(255,41,137)" paint-order="fill stroke markers" d=" M 70.656 117.76 C 70.656 65.7303582879406 112.8343582879406 23.552000000000007 164.864 23.552000000000007 L 347.13599999999997 23.552000000000007 C 399.16564171205937 23.552000000000007 441.344 65.7303582879406 441.344 117.76" stroke-opacity="1" stroke-miterlimit="10" stroke-width="47.104"/><path fill="none" stroke="rgb(255,41,137)" paint-order="fill stroke markers" d=" M 70.656 176.4693333333333 C 70.656 228.4989750453927 112.8343582879406 270.6773333333333 164.864 270.6773333333333 L 347.13599999999997 270.6773333333333 C 399.16564171205937 270.6773333333333 441.344 228.4989750453927 441.344 176.4693333333333" stroke-opacity="1" stroke-miterlimit="10" stroke-width="47.104"/><path fill="none" stroke="rgb(255,41,137)" paint-order="fill stroke markers" d=" M 117.76 147.11466666666666 C 138.29480737748872 114.82362311111112 166.34519262251132 114.82362311111112 186.88 147.11466666666666 L 186.88 147.11466666666666 C 207.4148073774887 179.4057102222222 235.4651926225113 179.4057102222222 256 147.11466666666666 L 256 147.11466666666666 C 276.53480737748873 114.82362311111112 304.5851926225113 114.82362311111112 325.12 147.11466666666666 L 325.12 147.11466666666666 C 345.65480737748874 179.4057102222222 373.7051926225113 179.4057102222222 394.24 147.11466666666666" stroke-opacity="1" stroke-miterlimit="10" stroke-width="28.2624"/><path fill="none" stroke="rgb(255,41,137)" paint-order="fill stroke markers" d=" M 117.76 147.11466666666666 C 176.4308782213963 54.85454222222222 128.2091217786037 54.85454222222222 186.88 147.11466666666666 L 186.88 147.11466666666666 C 245.55087822139632 239.3747911111111 197.3291217786037 239.3747911111111 256 147.11466666666666 L 256 147.11466666666666 C 314.6708782213963 54.85454222222222 266.4491217786037 54.85454222222222 325.12 147.11466666666666 L 325.12 147.11466666666666 C 383.7908782213963 239.3747911111111 335.5691217786037 239.3747911111111 394.24 147.11466666666666" stroke-opacity="1" stroke-miterlimit="10" stroke-width="28.2624"/><path fill="none" stroke="rgb(255,41,137)" paint-order="fill stroke markers" d=" M 23.552000000000007 147.11466666666666 C 23.552000000000007 121.09984581208747 44.64117914542081 100.01066666666667 70.656 100.01066666666667 C 96.6708208545792 100.01066666666667 117.76 121.09984581208747 117.76 147.11466666666666 C 117.76 173.12948752124586 96.6708208545792 194.21866666666665 70.656 194.21866666666665 C 44.64117914542081 194.21866666666665 23.552000000000007 173.12948752124586 23.552000000000007 147.11466666666666 Z" stroke-opacity="1" stroke-miterlimit="10" stroke-width="47.104"/><path fill="none" stroke="rgb(255,41,137)" paint-order="fill stroke markers" d=" M 394.24 147.11466666666666 C 394.24 121.09984581208747 415.32917914542077 100.01066666666667 441.344 100.01066666666667 C 467.3588208545792 100.01066666666667 488.448 121.09984581208747 488.448 147.11466666666666 C 488.448 173.12948752124586 467.3588208545792 194.21866666666665 441.344 194.21866666666665 C 415.32917914542077 194.21866666666665 394.24 173.12948752124586 394.24 147.11466666666666 Z" stroke-opacity="1" stroke-miterlimit="10" stroke-width="47.104"/></g></svg>