<svg version="1.1" xmlns="http://www.w3.org/2000/svg" xmlns:xlink="http://www.w3.org/1999/xlink" width="266.6" height="61" viewBox="0 0 266.6 61"><defs/><g/><g transform="scale(1,1) translate(30.5,30.5)"><g><path fill="rgb(255,41,137)" stroke="rgb(255,41,137)" paint-order="fill stroke markers" d=" M 30 0 C 30 -16.568542494923808 16.568542494923808 -30 0 -30 L 0 -30 C -16.568542494923808 -30 -30 -16.568542494923808 -30 0 L -30 0 C -30 16.568542494923808 -16.568542494923808 30 0 30 L 21.42857142857143 30 C 26.162440712835373 30 30 26.162440712835373 30 21.42857142857143 L 30 0 L 8.571428571428571 0 L 8.571428571428571 5.142857142857142 C 8.571428571428571 7.03640485656272 7.03640485656272 8.571428571428571 5.142857142857142 8.571428571428571 L 0 8.571428571428571 C -4.733869284263944 8.571428571428571 -8.571428571428571 4.733869284263944 -8.571428571428571 0 L -8.571428571428571 0 C -8.571428571428571 -4.733869284263944 -4.733869284263944 -8.571428571428571 0 -8.571428571428571 L 0 -8.571428571428571 C 4.733869284263944 -8.571428571428571 8.571428571428571 -4.733869284263944 8.571428571428571 0 L 30 0 L 30 0" fill-opacity="1" stroke-opacity="1" stroke-miterlimit="10"/><g transform="translate(30,0) translate(38,0)"><path fill="rgb(255,41,137)" stroke="rgb(255,41,137)" paint-order="fill stroke markers" d=" M 30 -26.57142857142857 C 30 -28.46497628513415 28.46497628513415 -30 26.57142857142857 -30 L 12 -30 C 10.10645228629442 -30 8.57142857142857 -28.46497628513415 8.57142857142857 -26.57142857142857 L 8.57142857142857 5.142857142857139 C 8.57142857142857 7.036404856562718 7.036404856562718 8.57142857142857 5.142857142857139 8.57142857142857 L 0 8.57142857142857 C -4.733869284263943 8.57142857142857 -8.57142857142857 4.733869284263943 -8.57142857142857 0 L -8.57142857142857 -26.57142857142857 C -8.57142857142857 -28.46497628513415 -10.10645228629442 -30 -12 -30 L -26.57142857142857 -30 C -28.46497628513415 -30 -30 -28.46497628513415 -30 -26.57142857142857 L -30 0 C -30 16.568542494923808 -16.568542494923808 30 0 30 L 21.42857142857143 30 C 26.162440712835373 30 30 26.162440712835373 30 21.42857142857143 L 30 -26.57142857142857 L 30 -26.57142857142857" fill-opacity="1" stroke-opacity="1" stroke-miterlimit="10"/><g transform="translate(30,0) translate(39.6,0)"><path fill="rgb(255,41,137)" stroke="rgb(255,41,137)" paint-order="fill stroke markers" d=" M 30 0 C 30 -16.568542494923808 16.568542494923808 -30 0 -30 L -21.42857142857143 -30 C -26.162440712835373 -30 -30 -26.162440712835373 -30 -21.42857142857143 L -30 26.57142857142857 C -30 28.46497628513415 -28.46497628513415 30 -26.57142857142857 30 L -12 30 C -10.10645228629442 30 -8.57142857142857 28.46497628513415 -8.57142857142857 26.57142857142857 L -8.57142857142857 -5.142857142857139 C -8.57142857142857 -7.036404856562718 -7.036404856562718 -8.57142857142857 -5.142857142857139 -8.57142857142857 L 0 -8.57142857142857 C 4.733869284263943 -8.57142857142857 8.57142857142857 -4.733869284263943 8.57142857142857 0 L 8.57142857142857 26.57142857142857 C 8.57142857142857 28.46497628513415 10.10645228629442 30 12 30 L 26.57142857142857 30 C 28.46497628513415 30 30 28.46497628513415 30 26.57142857142857 L 30 0 L 30 0" fill-opacity="1" stroke-opacity="1" stroke-miterlimit="10"/><g transform="translate(30,0) translate(38,0)"><path fill="rgb(255,41,137)" stroke="rgb(255,41,137)" paint-order="fill stroke markers" d=" M 30 0 C 30 -16.568542494923808 16.568542494923808 -30 0 -30 L 0 -30 C -16.568542494923808 -30 -30 -16.568542494923808 -30 0 L -30 0 C -30 16.568542494923808 -16.568542494923808 30 0 30 L 0 30 C 16.568542494923808 30 30 16.568542494923808 30 0 L 8.571428571428571 0 C 8.571428571428571 4.733869284263944 4.733869284263944 8.571428571428571 0 8.571428571428571 L 0 8.571428571428571 C -4.733869284263944 8.571428571428571 -8.571428571428571 4.733869284263944 -8.571428571428571 0 L -8.571428571428571 0 C -8.571428571428571 -4.733869284263944 -4.733869284263944 -8.571428571428571 0 -8.571428571428571 L 0 -8.571428571428571 C 4.733869284263944 -8.571428571428571 8.571428571428571 -4.733869284263944 8.571428571428571 0 L 30 0 L 30 0" fill-opacity="1" stroke-opacity="1" stroke-miterlimit="10"/><g transform="translate(30,0)"/></g></g></g></g></g></svg>