<svg version="1.1" xmlns="http://www.w3.org/2000/svg" xmlns:xlink="http://www.w3.org/1999/xlink" width="512" height="166.65258666666665" viewBox="0 0 512 166.65258666666665"><defs/><g/><g transform="scale(1,1)"><path fill="none" stroke="rgb(255,41,137)" paint-order="fill stroke markers" d=" M 117.76 83.32629333333333 C 138.29480737748872 51.03524977777777 166.34519262251132 51.03524977777777 186.88 83.32629333333333 L 186.88 83.32629333333333 C 207.4148073774887 115.61733688888887 235.4651926225113 115.61733688888887 256 83.32629333333333 L 256 83.32629333333333 C 276.53480737748873 51.03524977777777 304.5851926225113 51.03524977777777 325.12 83.32629333333333 L 325.12 83.32629333333333 C 345.65480737748874 115.61733688888887 373.7051926225113 115.61733688888887 394.24 83.32629333333333" stroke-opacity="1" stroke-miterlimit="10" stroke-width="28.2624"/><path fill="none" stroke="rgb(255,41,137)" paint-order="fill stroke markers" d=" M 117.76 83.32629333333333 C 176.4308782213963 -8.933831111111118 128.2091217786037 -8.933831111111118 186.88 83.32629333333333 L 186.88 83.32629333333333 C 245.55087822139632 175.58641777777777 197.3291217786037 175.58641777777777 256 83.32629333333333 L 256 83.32629333333333 C 314.6708782213963 -8.933831111111118 266.4491217786037 -8.933831111111118 325.12 83.32629333333333 L 325.12 83.32629333333333 C 383.7908782213963 175.58641777777777 335.5691217786037 175.58641777777777 394.24 83.32629333333333" stroke-opacity="1" stroke-miterlimit="10" stroke-width="28.2624"/><path fill="none" stroke="rgb(255,41,137)" paint-order="fill stroke markers" d=" M 23.552000000000007 83.32629333333333 C 23.552000000000007 57.311472478754126 44.64117914542081 36.222293333333326 70.656 36.222293333333326 C 96.6708208545792 36.222293333333326 117.76 57.311472478754126 117.76 83.32629333333333 C 117.76 109.34111418791252 96.6708208545792 130.43029333333334 70.656 130.43029333333334 C 44.64117914542081 130.43029333333334 23.552000000000007 109.34111418791252 23.552000000000007 83.32629333333333 Z" stroke-opacity="1" stroke-miterlimit="10" stroke-width="47.104"/><path fill="none" stroke="rgb(255,41,137)" paint-order="fill stroke markers" d=" M 394.24 83.32629333333333 C 394.24 57.311472478754126 415.32917914542077 36.222293333333326 441.344 36.222293333333326 C 467.3588208545792 36.222293333333326 488.448 57.311472478754126 488.448 83.32629333333333 C 488.448 109.34111418791252 467.3588208545792 130.43029333333334 441.344 130.43029333333334 C 415.32917914542077 130.43029333333334 394.24 109.34111418791252 394.24 83.32629333333333 Z" stroke-opacity="1" stroke-miterlimit="10" stroke-width="47.104"/></g></svg>