<svg version="1.1" xmlns="http://www.w3.org/2000/svg" xmlns:xlink="http://www.w3.org/1999/xlink" width="297.62857142857143" height="76" viewBox="0 0 297.62857142857143 76"><defs/><g/><g transform="scale(1,1) translate(0,15) translate(30.5,30.5)"><g><path fill="rgb(255,41,137)" stroke="rgb(255,41,137)" paint-order="fill stroke markers" d=" M 30 0 C 30 -16.568542494923808 16.568542494923808 -30 0 -30 L -21.42857142857143 -30 C -26.162440712835373 -30 -30 -26.162440712835373 -30 -21.42857142857143 L -30 26.57142857142857 C -30 28.46497628513415 -28.46497628513415 30 -26.57142857142857 30 L -12 30 C -10.10645228629442 30 -8.57142857142857 28.46497628513415 -8.57142857142857 26.57142857142857 L -8.57142857142857 -5.142857142857139 C -8.57142857142857 -7.036404856562718 -7.036404856562718 -8.57142857142857 -5.142857142857139 -8.57142857142857 L 0 -8.57142857142857 C 4.733869284263943 -8.57142857142857 8.57142857142857 -4.733869284263943 8.57142857142857 0 L 8.57142857142857 26.57142857142857 C 8.57142857142857 28.46497628513415 10.10645228629442 30 12 30 L 26.57142857142857 30 C 28.46497628513415 30 30 28.46497628513415 30 26.57142857142857 L 30 0 L 30 0" fill-opacity="1" stroke-opacity="1" stroke-miterlimit="10"/><g transform="translate(30,0) translate(38,0)"><path fill="rgb(255,41,137)" stroke="rgb(255,41,137)" paint-order="fill stroke markers" d=" M 30 0 C 30 -16.568542494923808 16.568542494923808 -30 0 -30 L 0 -30 C -16.568542494923808 -30 -30 -16.568542494923808 -30 0 L -30 0 C -30 16.568542494923808 -16.568542494923808 30 0 30 L 0 30 C 16.568542494923808 30 30 16.568542494923808 30 0 L 8.571428571428571 0 C 8.571428571428571 4.733869284263944 4.733869284263944 8.571428571428571 0 8.571428571428571 L 0 8.571428571428571 C -4.733869284263944 8.571428571428571 -8.571428571428571 4.733869284263944 -8.571428571428571 0 L -8.571428571428571 0 C -8.571428571428571 -4.733869284263944 -4.733869284263944 -8.571428571428571 0 -8.571428571428571 L 0 -8.571428571428571 C 4.733869284263944 -8.571428571428571 8.571428571428571 -4.733869284263944 8.571428571428571 0 L 30 0 L 30 0" fill-opacity="1" stroke-opacity="1" stroke-miterlimit="10"/><g transform="translate(30,0) translate(38,0)"><path fill="rgb(255,41,137)" stroke="rgb(255,41,137)" paint-order="fill stroke markers" d=" M 30 -41.57142857142857 C 30 -43.46497628513415 28.46497628513415 -45 26.57142857142857 -45 L 12 -45 C 10.10645228629442 -45 8.57142857142857 -43.46497628513415 8.57142857142857 -41.57142857142857 L 8.57142857142857 -33.42857142857143 C 8.57142857142857 -31.53502371486585 7.036404856562718 -30 5.142857142857139 -30 L 0 -30 C -16.568542494923808 -30 -30 -16.568542494923808 -30 0 L -30 0 C -30 16.568542494923808 -16.568542494923808 30 0 30 L 15.857142857142854 30 C 17.750690570848434 30 19.285714285714285 28.46497628513415 19.285714285714285 26.57142857142857 L 19.285714285714285 12 C 19.285714285714285 10.10645228629442 17.750690570848434 8.57142857142857 15.857142857142854 8.57142857142857 L 0 8.57142857142857 C -4.733869284263943 8.57142857142857 -8.57142857142857 4.733869284263943 -8.57142857142857 0 L -8.57142857142857 0 C -8.57142857142857 -4.733869284263943 -4.733869284263943 -8.57142857142857 0 -8.57142857142857 L 21.42857142857143 -8.57142857142857 C 26.162440712835373 -8.57142857142857 30 -12.408987858593196 30 -17.14285714285714 L 30 -41.57142857142857 L 30 -41.57142857142857" fill-opacity="1" stroke-opacity="1" stroke-miterlimit="10"/><g transform="translate(30,0) translate(1.0285714285714285,0)"><path fill="rgb(255,41,137)" stroke="rgb(255,41,137)" paint-order="fill stroke markers" d=" M 30 -26.57142857142857 C 30 -28.46497628513415 28.46497628513415 -30 26.57142857142857 -30 L 12 -30 C 10.10645228629442 -30 8.57142857142857 -28.46497628513415 8.57142857142857 -26.57142857142857 L 8.57142857142857 26.57142857142857 C 8.57142857142857 28.46497628513415 10.10645228629442 30 12 30 L 26.57142857142857 30 C 28.46497628513415 30 30 28.46497628513415 30 26.57142857142857 L 30 -26.57142857142857 L 30 -26.57142857142857" fill-opacity="1" stroke-opacity="1" stroke-miterlimit="10"/><g transform="translate(30,0) translate(39.6,0)"><path fill="rgb(255,41,137)" stroke="rgb(255,41,137)" paint-order="fill stroke markers" d=" M 30 0 C 30 -16.568542494923808 16.568542494923808 -30 0 -30 L 0 -30 C -16.568542494923808 -30 -30 -16.568542494923808 -30 0 L -30 0 C -30 16.568542494923808 -16.568542494923808 30 0 30 L 0 30 C 16.568542494923808 30 30 16.568542494923808 30 0 L 8.571428571428571 0 C 8.571428571428571 4.733869284263944 4.733869284263944 8.571428571428571 0 8.571428571428571 L 0 8.571428571428571 C -4.733869284263944 8.571428571428571 -8.571428571428571 4.733869284263944 -8.571428571428571 0 L -8.571428571428571 0 C -8.571428571428571 -4.733869284263944 -4.733869284263944 -8.571428571428571 0 -8.571428571428571 L 0 -8.571428571428571 C 4.733869284263944 -8.571428571428571 8.571428571428571 -4.733869284263944 8.571428571428571 0 L 30 0 L 30 0" fill-opacity="1" stroke-opacity="1" stroke-miterlimit="10"/><g transform="translate(30,0)"/></g></g></g></g></g></g></svg>