<svg version="1.1" xmlns="http://www.w3.org/2000/svg" xmlns:xlink="http://www.w3.org/1999/xlink" width="512" height="512" viewBox="0 0 512 512"><defs/><g/><g transform="scale(1,1) scale(1,1)"><path fill="none" stroke="rgb(255,41,137)" paint-order="fill stroke markers" d=" M 92.16 215.04 C 92.16 147.17524994079207 147.17524994079207 92.16 215.04 92.16 L 296.96000000000004 92.16 C 364.82475005920793 92.16 419.84000000000003 147.17524994079207 419.84000000000003 215.04" stroke-opacity="1" stroke-miterlimit="10" stroke-width="61.44"/><path fill="none" stroke="rgb(255,41,137)" paint-order="fill stroke markers" d=" M 92.16 296.96000000000004 C 92.16 364.82475005920793 147.17524994079207 419.84000000000003 215.04 419.84000000000003 L 296.96000000000004 419.84000000000003 C 364.82475005920793 419.84000000000003 419.84000000000003 364.82475005920793 419.84000000000003 296.96000000000004" stroke-opacity="1" stroke-miterlimit="10" stroke-width="61.44"/><path fill="none" stroke="rgb(255,41,137)" paint-order="fill stroke markers" d=" M 153.6 256 C 184.02193685553883 213.18314666666666 225.57806314446117 213.18314666666666 256 256 L 256 256 C 286.42193685553883 298.8168533333333 327.9780631444612 298.8168533333333 358.40000000000003 256" stroke-opacity="1" stroke-miterlimit="10" stroke-width="36.864"/><path fill="none" stroke="rgb(255,41,137)" paint-order="fill stroke markers" d=" M 153.6 256 C 240.51981958725378 133.66613333333333 169.08018041274622 133.66613333333333 256 256 L 256 256 C 342.9198195872538 378.33386666666667 271.4801804127462 378.33386666666667 358.40000000000003 256" stroke-opacity="1" stroke-miterlimit="10" stroke-width="36.864"/><path fill="none" stroke="rgb(255,41,137)" paint-order="fill stroke markers" d=" M 30.72 256 C 30.72 222.067624972288 58.227624972288 194.56 92.16 194.56 C 126.092375027712 194.56 153.6 222.067624972288 153.6 256 C 153.6 289.932375027712 126.092375027712 317.44 92.16 317.44 C 58.227624972288 317.44 30.72 289.932375027712 30.72 256 Z" stroke-opacity="1" stroke-miterlimit="10" stroke-width="61.44"/><path fill="none" stroke="rgb(255,41,137)" paint-order="fill stroke markers" d=" M 358.40000000000003 256 C 358.40000000000003 222.067624972288 385.90762497228803 194.56 419.84000000000003 194.56 C 453.77237502771203 194.56 481.28000000000003 222.067624972288 481.28000000000003 256 C 481.28000000000003 289.932375027712 453.77237502771203 317.44 419.84000000000003 317.44 C 385.90762497228803 317.44 358.40000000000003 289.932375027712 358.40000000000003 256 Z" stroke-opacity="1" stroke-miterlimit="10" stroke-width="61.44"/></g></svg>